<?xml version="1.0" encoding="UTF-8"?>
<svg xmlns="http://www.w3.org/2000/svg" id="Layer_1" data-name="Layer 1" viewBox="0 0 24 24" fill="white">
  <path d="M21,4h-2v-1c0-1.654-1.346-3-3-3H3C1.346,0,0,1.346,0,3v14.855c-.054,1.663,1.984,2.755,3.339,1.787l2.661-1.774v3.132h10.697l3.963,2.642c1.356,.967,3.393-.124,3.34-1.787V7c0-1.654-1.346-3-3-3ZM2.229,17.978c-.05,.079-.268-.039-.229-.123V3c0-.551,.449-1,1-1h13c.552,0,1,.449,1,1V15H6.697l-4.468,2.978Zm19.771,3.877c.039,.086-.183,.203-.23,.123l-4.467-2.978H8v-2h11V6h2c.552,0,1,.449,1,1v14.855ZM8.5,12h-3.5V5h3.5v1.6h-1.9v1.101h1.9v1.6h-1.9v1.101h1.9v1.6Zm2.493,0h-1.493V5h1.493v.008l1.68,3.547v-3.555h1.493v7h-1.493l-1.68-3.547v3.547Z"/>
</svg>
