<?xml version="1.0" encoding="UTF-8"?>
<svg xmlns="http://www.w3.org/2000/svg" id="Layer_1" data-name="Layer 1" viewBox="0 0 24 24" fill="white">
  <path d="M18.672,14.126c-.206-.086-.413-.126-.613-.126-.689,0-1.287,.475-1.443,1.147l-1.616,6.853h1.003l.479-2h3.115l.462,2h1.014l-1.559-6.804c-.107-.464-.403-.886-.842-1.07Zm-1.951,4.874l.869-3.627c.051-.219,.244-.373,.469-.373,.344,0,.439,.245,.48,.42l.827,3.58h-2.645ZM12,2c0-1.103-.897-2-2-2H2C.897,0,0,.897,0,2V12H12V2Zm-1,9H1V2c0-.551,.449-1,1-1H10c.551,0,1,.449,1,1V11Zm11,1H14c-1.103,0-2,.897-2,2v10h12V14c0-1.103-.897-2-2-2Zm1,11H13V14c0-.552,.449-1,1-1h8c.551,0,1,.448,1,1v9ZM6.5,3h3.5v1h-1.038c-.107,.917-.517,2.904-2.085,4.341,.799,.403,1.819,.659,3.122,.659v1c-1.722,0-3.021-.399-4-.999-.979,.6-2.278,.999-4,.999v-1c1.304,0,2.324-.257,3.122-.659-.776-.711-1.268-1.556-1.581-2.341h1.069c.296,.618,.736,1.252,1.389,1.777,1.474-1.185,1.862-2.925,1.964-3.777H2v-1h3.5v-1h1v1Zm15,0h-5.204l2.352-2.352-.707-.707-2.507,2.506c-.58,.581-.58,1.525,0,2.105l2.506,2.506,.707-.707-2.352-2.352h5.204c.827,0,1.5,.673,1.5,1.5v4.5h1V5.5c0-1.378-1.122-2.5-2.5-2.5ZM6.058,16.941l-.707,.707,2.352,2.352H2.5c-.827,0-1.5-.673-1.5-1.5v-4.5H0v4.5c0,1.379,1.122,2.5,2.5,2.5H7.703l-2.352,2.352,.707,.707,2.507-2.506c.58-.58,.58-1.525,0-2.105l-2.506-2.506Z"/>
</svg>
